<?xml version="1.0" standalone="no"?>
<!DOCTYPE svg PUBLIC "-//W3C//DTD SVG 20010904//EN"
 "http://www.w3.org/TR/2001/REC-SVG-20010904/DTD/svg10.dtd">
<svg version="1.0" xmlns="http://www.w3.org/2000/svg"
 width="119.000000pt" height="119.000000pt" viewBox="0 0 119.000000 119.000000"
 preserveAspectRatio="xMidYMid meet">

<g transform="translate(0.000000,119.000000) scale(0.100000,-0.100000)"
fill="#000000" stroke="none">
<path d="M0 595 l0 -595 595 0 595 0 0 595 0 595 -595 0 -595 0 0 -595z m443
426 c3 -15 0 -32 -8 -40 -19 -19 -21 -15 -27 41 -5 43 -4 46 13 35 9 -6 20
-22 22 -36z m401 -17 c-10 -18 -22 -31 -26 -28 -13 8 -9 27 14 64 18 29 23 32
26 16 2 -10 -4 -33 -14 -52z m165 -93 c-19 -21 -45 -56 -58 -78 -14 -25 -36
-45 -57 -53 -19 -8 -34 -17 -34 -22 0 -14 52 -21 119 -14 37 3 71 3 74 -1 8
-7 -84 -42 -131 -50 -18 -2 -39 0 -46 6 -11 9 -19 2 -40 -33 -14 -24 -33 -46
-41 -50 -9 -3 -87 -9 -173 -13 -86 -3 -151 -8 -143 -11 10 -3 10 -6 1 -12 -9
-6 -9 -12 1 -27 6 -11 9 -31 6 -45 -5 -20 -12 -24 -30 -21 -16 3 -38 -6 -68
-29 -41 -31 -44 -38 -47 -84 -2 -36 1 -54 13 -64 21 -18 19 -29 -5 -23 -16 4
-23 -2 -31 -26 -6 -17 -15 -28 -20 -25 -5 3 -7 9 -4 14 3 5 0 12 -6 15 -6 4
-26 -8 -45 -26 -37 -36 -44 -33 -17 8 17 26 17 26 -5 14 -31 -17 -27 -4 12 39
26 29 35 49 40 93 9 69 27 93 102 132 71 36 79 64 24 77 -19 5 -46 22 -60 37
-14 15 -54 41 -90 58 -110 53 -148 100 -47 58 77 -32 131 -9 91 38 -28 32 -54
83 -47 90 3 4 0 13 -7 22 -8 10 -9 15 -1 15 6 0 21 -17 35 -38 34 -54 51 -65
90 -59 27 4 38 1 56 -18 14 -15 18 -25 11 -30 -14 -8 -14 -35 0 -35 6 0 13 9
16 20 4 16 10 18 32 12 79 -22 206 11 278 73 48 41 57 43 49 12 -4 -16 1 -26
14 -35 27 -17 65 0 120 52 41 39 89 76 98 76 3 0 -11 -17 -29 -39z m-269 -364
c0 -7 25 -41 55 -75 34 -40 55 -72 55 -88 0 -13 15 -41 33 -61 18 -21 39 -47
47 -58 14 -18 13 -19 -1 -8 -9 7 -18 10 -21 7 -3 -3 -15 6 -26 20 -11 15 -23
26 -26 26 -14 0 -5 -38 14 -58 17 -18 18 -22 5 -22 -18 0 -19 -4 -4 -33 11
-20 10 -20 -15 3 -27 24 -28 24 -41 6 -13 -18 -14 -17 -21 8 -5 20 -13 26 -33
26 -22 1 -23 2 -9 10 9 6 24 30 33 54 14 37 15 48 4 67 -7 13 -12 31 -11 41 2
9 -2 19 -8 23 -5 3 -10 15 -10 26 0 10 -4 19 -9 19 -5 0 -12 12 -16 28 -14 49
-15 63 -5 57 5 -3 10 -12 10 -18z m-212 -185 c-68 -71 -87 -105 -90 -155 -2
-25 -6 -43 -10 -40 -4 2 -17 -11 -29 -29 -14 -23 -19 -26 -14 -10 5 16 2 22
-10 22 -8 0 -18 -6 -21 -14 -3 -8 -12 -17 -20 -20 -11 -4 -12 -2 -1 15 10 16
9 21 -1 28 -10 6 -4 20 27 55 23 26 41 51 41 56 0 10 106 140 124 152 5 4 19
2 29 -4 18 -9 16 -13 -25 -56z"/>
<path d="M720 766 c0 -18 16 -29 30 -21 13 8 1 35 -16 35 -8 0 -14 -6 -14 -14z"/>
</g>
</svg>
